<svg width="80" height="90" viewBox="0 0 80 90" fill="none" xmlns="http://www.w3.org/2000/svg">
<rect x="45.8828" y="59.1177" width="13.2353" height="30.8824" rx="6.61765" fill="#C7E5A2"/>
<rect x="19.4121" y="59.1177" width="13.2353" height="30.8824" rx="6.61765" fill="#C7E5A2"/>
<rect x="19.4121" y="59.1177" width="13.2353" height="14.1176" fill="black"/>
<rect x="45.8828" y="59.1177" width="13.2353" height="14.1176" fill="black"/>
<path d="M79.4118 39.7059C79.4118 34.4916 78.3847 29.3284 76.3893 24.5111C74.3939 19.6938 71.4692 15.3166 67.7822 11.6296C64.0951 7.94255 59.718 5.01784 54.9007 3.02243C50.0833 1.02702 44.9201 -2.27922e-07 39.7059 0C34.4916 2.27922e-07 29.3284 1.02702 24.5111 3.02243C19.6938 5.01784 15.3166 7.94255 11.6296 11.6296C7.94255 15.3166 5.01784 19.6938 3.02243 24.5111C1.02702 29.3284 -4.55844e-07 34.4916 0 39.7059L39.7059 39.7059H79.4118Z" fill="#9BCB8D"/>
<path d="M0 39.7059H79.4118V63.8236C79.4118 66.585 77.1732 68.8236 74.4118 68.8236H4.99999C2.23857 68.8236 0 66.585 0 63.8236V39.7059Z" fill="#9BCB8D"/>
<path d="M74 37.5C74 32.5754 73.043 27.6991 71.1835 23.1494C69.3241 18.5997 66.5987 14.4657 63.163 10.9835C59.7272 7.5013 55.6483 4.73907 51.1593 2.85452C46.6702 0.969966 41.8589 -2.1526e-07 37 0C32.1411 2.1526e-07 27.3298 0.969967 22.8407 2.85452C18.3517 4.73907 14.2728 7.5013 10.837 10.9835C7.40128 14.4657 4.67588 18.5997 2.81646 23.1494C0.957032 27.6991 -4.24779e-07 32.5754 0 37.5L37 37.5H74Z" fill="#C7E5A2"/>
<path d="M0 34H74V58C74 60.7614 71.7614 63 69 63H5C2.23858 63 0 60.7614 0 58V34Z" fill="#C7E5A2"/>
<circle cx="22.9415" cy="30" r="3.52941" fill="black"/>
<circle cx="51.1769" cy="30" r="3.52941" fill="black"/>
<path d="M30 43.5408C30.2335 43.6542 30.7741 43.9537 31.2632 44.1437C31.5902 44.2708 32.1224 44.4346 32.5348 44.5505C32.9472 44.6665 33.2352 44.7232 33.5892 44.7808C33.9432 44.8383 34.3546 44.895 34.7105 44.9337C35.0663 44.9723 35.3543 44.9912 35.9346 44.9978C36.5148 45.0044 37.3787 44.9981 38.1939 44.9571C39.0091 44.916 39.7496 44.8404 40.3916 44.7511C41.0335 44.6617 41.5546 44.5609 42.0012 44.4523C42.4479 44.3437 42.8044 44.2303 43.2143 44.0774C43.6242 43.9245 44.0767 43.7355 44.3715 43.6035C44.6663 43.4715 44.7898 43.4022 44.8602 43.357C44.9306 43.3119 44.9443 43.293 45 43.2354" stroke="black" stroke-width="4" stroke-linecap="round"/>
</svg>
