<svg width="23" height="23" viewBox="0 0 23 23" fill="none" xmlns="http://www.w3.org/2000/svg">
<rect width="21.968" height="21.968" rx="5" transform="matrix(-1 0 0 1 22.4694 0.501404)" fill="#CBA08D"/>
<rect width="20.2337" height="20.2337" rx="5" transform="matrix(-1 0 0 1 22.428 0.461792)" fill="#E5C1A2"/>
<circle cx="1.15621" cy="1.15621" r="1.15621" transform="matrix(-1 0 0 1 18.033 8.05133)" fill="black"/>
<circle cx="1.15621" cy="1.15621" r="1.15621" transform="matrix(-1 0 0 1 8.79346 8.4837)" fill="black"/>
<path d="M14.7858 13.8612C14.7093 13.8984 14.5322 13.9965 14.372 14.0588C14.2649 14.1004 14.0905 14.154 13.9554 14.192C13.8203 14.23 13.726 14.2486 13.61 14.2674C13.4941 14.2863 13.3593 14.3049 13.2427 14.3175C13.1261 14.3302 13.0318 14.3364 12.8417 14.3385C12.6516 14.3407 12.3686 14.3386 12.1016 14.3252C11.8345 14.3117 11.5919 14.287 11.3816 14.2577C11.1713 14.2284 11.0006 14.1954 10.8543 14.1598C10.708 14.1243 10.5912 14.0871 10.4569 14.037C10.3226 13.9869 10.1744 13.925 10.0778 13.8818C9.98123 13.8385 9.9408 13.8158 9.91773 13.801C9.89466 13.7862 9.89017 13.7801 9.87193 13.7612" stroke="black" stroke-width="1.5" stroke-linecap="round"/>
</svg>
