<svg width="136" height="137" viewBox="0 0 136 137" fill="none" xmlns="http://www.w3.org/2000/svg">
<path d="M13.9627 81.7836C12.2004 74.6263 11.858 67.1938 12.955 59.9104C14.0521 52.627 16.567 45.6353 20.3564 39.3345C24.1457 33.0337 29.1352 27.5473 35.0399 23.1884C40.9447 18.8295 47.649 15.6835 54.7702 13.9301C61.8914 12.1767 69.29 11.8502 76.5435 12.9692C83.7971 14.0882 90.7635 16.6309 97.0451 20.4519C103.327 24.273 108.8 29.2977 113.154 35.2392C117.507 41.1806 120.655 47.9224 122.417 55.0796L68.1898 68.4316L13.9627 81.7836Z" fill="#9BCB8D"/>
<path d="M122.417 55.0798L13.9628 81.7838L22.6084 116.897C23.2686 119.578 25.9775 121.216 28.6588 120.556L127.403 96.243C130.084 95.5828 131.723 92.8739 131.063 90.1926L122.417 55.0798Z" fill="#9BCB8D"/>
<path d="M20.2529 75.1513C18.636 68.5844 18.3409 61.7602 19.3845 55.0683C20.4281 48.3765 22.79 41.9481 26.3352 36.1501C29.8805 30.3521 34.5397 25.2981 40.0469 21.2767C45.5541 17.2553 51.8014 14.3452 58.4321 12.7126C65.0628 11.0799 71.9471 10.7568 78.6918 11.7615C85.4365 12.7662 91.9097 15.0791 97.7416 18.5682C103.574 22.0572 108.65 26.6542 112.681 32.0964C116.713 37.5387 119.62 43.7198 121.237 50.2867L70.7449 62.719L20.2529 75.1513Z" fill="#C7E5A2"/>
<path d="M120.878 48.8302L19.8943 73.6948L28.0231 106.709C28.6833 109.39 31.3921 111.029 34.0735 110.368L125.347 87.8946C128.029 87.2344 129.667 84.5255 129.007 81.8442L120.878 48.8302Z" fill="#C7E5A2"/>
<circle cx="4.98927" cy="4.98927" r="4.98927" transform="matrix(-0.970999 0.239083 0.239083 0.970999 91.8474 43.3381)" fill="black"/>
<circle cx="4.98927" cy="4.98927" r="4.98927" transform="matrix(-0.970999 0.239083 0.239083 0.970999 53.0908 52.8809)" fill="black"/>
<path d="M83.083 70.3475C82.8008 70.582 82.16 71.1759 81.5529 71.602C81.1469 71.887 80.4717 72.2916 79.9448 72.5902C79.418 72.8888 79.0419 73.0639 78.5754 73.2626C78.1089 73.4612 77.5634 73.6781 77.088 73.8514C76.6126 74.0247 76.2237 74.148 75.4295 74.3532C74.6352 74.5583 73.4473 74.8416 72.3144 75.0608C71.1815 75.28 70.1396 75.4265 69.2283 75.5208C68.3169 75.6152 67.5676 75.6529 66.9178 75.6548C66.2679 75.6566 65.7403 75.6215 65.1259 75.5501C64.5116 75.4788 63.8266 75.3723 63.3774 75.2908C62.9281 75.2092 62.7353 75.1558 62.6233 75.1176C62.5114 75.0795 62.4862 75.0581 62.3903 74.9978" stroke="black" stroke-width="4" stroke-linecap="round"/>
</svg>
