<svg width="219" height="210" viewBox="0 0 219 210" fill="none" xmlns="http://www.w3.org/2000/svg">
<rect x="76.9941" y="134.261" width="20.2329" height="17.5352" transform="rotate(-17.1919 76.9941 134.261)" fill="#E5A2C1"/>
<rect width="20.2329" height="17.5352" transform="matrix(-0.95532 0.295573 0.295573 0.95532 150.444 111.536)" fill="#E5A2C1"/>
<path d="M83.4595 34.8774C84.4043 31.3054 88.7634 29.9567 91.5604 32.371L187.952 115.574C190.925 118.14 189.914 122.975 186.162 124.135L57.2094 164.033C53.4576 165.194 49.8935 161.774 50.8978 157.978L83.4595 34.8774Z" fill="#CB8DAB"/>
<path d="M83.1854 34.6098C84.1431 30.9468 88.6665 29.636 91.4343 32.2193L172.169 107.57C174.977 110.191 173.904 114.867 170.235 116.002L60.9593 149.812C57.2136 150.971 53.6522 147.564 54.644 143.771L83.1854 34.6098Z" fill="#E5A2C1"/>
<circle cx="86.0036" cy="92.6454" r="4.72102" transform="rotate(-17.1919 86.0036 92.6454)" fill="black"/>
<circle cx="116.93" cy="83.0768" r="4.72102" transform="rotate(-17.1919 116.93 83.0768)" fill="black"/>
<path d="M96.034 109.092C96.4263 109.152 97.3511 109.345 98.1512 109.402C98.6862 109.44 99.5375 109.438 100.192 109.421C100.847 109.404 101.293 109.357 101.836 109.281C102.379 109.205 103.005 109.102 103.543 108.998C104.08 108.893 104.509 108.791 105.359 108.538C106.21 108.286 107.468 107.886 108.64 107.458C109.812 107.03 110.86 106.585 111.757 106.164C112.654 105.744 113.369 105.361 113.973 105.001C114.576 104.64 115.045 104.313 115.575 103.905C116.104 103.496 116.68 103.016 117.051 102.69C117.422 102.364 117.57 102.207 117.653 102.109C117.735 102.011 117.747 101.978 117.802 101.868" stroke="black" stroke-width="4" stroke-linecap="round"/>
</svg>
