<svg width="136" height="103" viewBox="0 0 136 103" fill="none" xmlns="http://www.w3.org/2000/svg">
<rect x="64.4976" y="68.9012" width="14.5566" height="33.9654" rx="7.2783" fill="#B7BFE8"/>
<rect x="64.4976" y="70.8422" width="14.5566" height="12.6157" fill="black"/>
<rect x="103.315" y="68.9012" width="14.5566" height="33.9654" rx="7.2783" fill="#B7BFE8"/>
<rect x="103.315" y="70.8422" width="14.5566" height="12.6157" fill="black"/>
<circle cx="91.6698" cy="43.6698" r="43.6698" fill="#878FB4"/>
<ellipse cx="89.2437" cy="39.7881" rx="41.2437" ry="39.7881" fill="#B7BFE8"/>
<circle cx="73.2314" cy="36.8767" r="3.88176" fill="black"/>
<circle cx="98.8818" cy="36.8818" r="3.88176" fill="black"/>
<path d="M76 51.3359C76.2568 51.4606 76.8514 51.7901 77.3893 51.9991C77.749 52.1388 78.3343 52.3189 78.7879 52.4465C79.2415 52.574 79.5582 52.6364 79.9475 52.6997C80.3369 52.763 80.7893 52.8254 81.1807 52.8679C81.5721 52.9104 81.8888 52.9312 82.527 52.9384C83.1652 52.9457 84.1153 52.9387 85.0119 52.8936C85.9085 52.8484 86.7229 52.7653 87.429 52.667C88.135 52.5688 88.7081 52.4579 89.1994 52.3385C89.6906 52.219 90.0827 52.0943 90.5336 51.9261C90.9844 51.7579 91.482 51.5501 91.8063 51.4049C92.1305 51.2597 92.2662 51.1835 92.3437 51.1338C92.4212 51.0842 92.4362 51.0634 92.4975 51" stroke="black" stroke-width="4" stroke-linecap="round"/>
<rect x="4.997" y="43.2857" width="33.1352" height="49.1896" rx="4" transform="rotate(-38.2693 4.997 43.2857)" fill="white" stroke="black" stroke-width="2"/>
<rect x="16.4023" y="39.1932" width="33.1352" height="44.8469" rx="4" transform="rotate(-23.2704 16.4023 39.1932)" fill="white" stroke="black" stroke-width="2"/>
<rect x="29.6159" y="35.831" width="33.1352" height="44.8469" rx="4" transform="rotate(-3.86497 29.6159 35.831)" fill="white" stroke="black" stroke-width="2"/>
</svg>
