<svg width="44" height="33" viewBox="0 0 44 33" fill="none" xmlns="http://www.w3.org/2000/svg">
<rect x="-0.5" y="0.5" width="13" height="14" rx="1.5" transform="matrix(-1 0 0 1 13.6636 0)" fill="white" stroke="black" stroke-dasharray="2 2"/>
<rect x="-0.5" y="0.5" width="13" height="14" rx="1.5" transform="matrix(-1 0 0 1 22.6636 5)" fill="white" stroke="black"/>
<rect x="35.3285" y="22.2861" width="4.33579" height="10.1169" rx="2.1679" fill="#E5C1A2"/>
<rect x="26.6568" y="22.2861" width="4.33579" height="10.1169" rx="2.1679" fill="#E5C1A2"/>
<rect x="26.6568" y="22.2861" width="4.33579" height="4.62485" fill="black"/>
<rect x="35.3285" y="22.2861" width="4.33579" height="4.62485" fill="black"/>
<rect x="22.032" y="3.49762" width="21.968" height="21.968" rx="5" fill="#CBA08D"/>
<rect x="22.032" y="3.49762" width="20.2337" height="20.2337" rx="5" fill="#E5C1A2"/>
<circle cx="27.524" cy="12.4582" r="1.15621" fill="black"/>
<circle cx="36.7737" cy="12.4582" r="1.15621" fill="black"/>
<path d="M29.8364 16.8941C29.9129 16.9313 30.09 17.0294 30.2502 17.0916C30.3573 17.1333 30.5317 17.1869 30.6668 17.2249C30.8019 17.2629 30.8962 17.2815 31.0122 17.3003C31.1282 17.3192 31.2629 17.3378 31.3795 17.3504C31.4961 17.3631 31.5904 17.3693 31.7805 17.3714C31.9706 17.3736 32.2536 17.3715 32.5207 17.3581C32.7877 17.3446 33.0303 17.3199 33.2406 17.2906C33.4509 17.2613 33.6216 17.2283 33.7679 17.1927C33.9143 17.1572 34.031 17.12 34.1653 17.0699C34.2996 17.0198 34.4478 16.9579 34.5444 16.9147C34.641 16.8714 34.6814 16.8487 34.7045 16.8339C34.7276 16.8191 34.7321 16.813 34.7503 16.7941" stroke="black" stroke-width="1.5" stroke-linecap="round"/>
<path d="M18.4194 12.3216C18.4733 11.4196 17.5812 10.7598 16.7345 11.0753L9.58174 13.7431C8.65219 14.0898 8.47731 15.3299 9.27486 15.92L15.9703 20.8726C16.7679 21.4624 17.9026 20.9323 17.962 19.942L18.4194 12.3216Z" fill="white" stroke="black" stroke-width="1.5"/>
<path d="M9.93841 17.608L7.17205 20.981C6.73438 21.5147 6.81233 22.3024 7.34587 22.7402L9.21093 24.2698C9.7447 24.7076 10.5323 24.6297 10.9701 24.096L13.7365 20.723L9.93841 17.608Z" fill="white" stroke="black" stroke-width="1.5"/>
<rect width="3.41401" height="6.15508" transform="matrix(-0.773209 -0.634152 -0.634152 0.773209 16.4634 16.213)" fill="white"/>
</svg>
