<svg width="44" height="29" viewBox="0 0 44 29" fill="none" xmlns="http://www.w3.org/2000/svg">
<rect x="-0.5" y="0.5" width="13" height="14" rx="1.5" transform="matrix(-1 0 0 1 13 0)" fill="white" stroke="black" stroke-dasharray="2 2"/>
<rect x="-0.5" y="0.5" width="13" height="14" rx="1.5" transform="matrix(-1 0 0 1 22 5)" fill="white" stroke="black"/>
<rect x="21.3684" y="3.49762" width="21.968" height="21.968" rx="5" fill="#CBA08D"/>
<rect x="21.3684" y="3.49762" width="20.2337" height="20.2337" rx="5" fill="#E5C1A2"/>
<circle cx="26.8605" cy="12.4582" r="1.15621" fill="black"/>
<circle cx="36.1101" cy="12.4582" r="1.15621" fill="black"/>
<path d="M29.1728 16.8941C29.2493 16.9313 29.4264 17.0294 29.5866 17.0916C29.6938 17.1333 29.8681 17.1869 30.0032 17.2249C30.1383 17.2629 30.2327 17.2815 30.3486 17.3003C30.4646 17.3192 30.5994 17.3378 30.716 17.3504C30.8325 17.3631 30.9269 17.3693 31.117 17.3714C31.307 17.3736 31.59 17.3715 31.8571 17.3581C32.1242 17.3446 32.3667 17.3199 32.577 17.2906C32.7873 17.2613 32.958 17.2283 33.1044 17.1927C33.2507 17.1572 33.3675 17.12 33.5018 17.0699C33.636 17.0198 33.7843 16.9579 33.8809 16.9147C33.9774 16.8714 34.0179 16.8487 34.0409 16.8339C34.064 16.8191 34.0685 16.813 34.0867 16.7941" stroke="black" stroke-width="1.5" stroke-linecap="round"/>
<path d="M17.7558 12.3216C17.8098 11.4196 16.9177 10.7598 16.071 11.0753L8.91818 13.7431C7.98864 14.0898 7.81375 15.3299 8.6113 15.92L15.3068 20.8726C16.1044 21.4624 17.2391 20.9323 17.2985 19.942L17.7558 12.3216Z" fill="white" stroke="black" stroke-width="1.5"/>
<path d="M9.27484 17.608L6.50848 20.981C6.07081 21.5147 6.14876 22.3024 6.6823 22.7402L8.54736 24.2699C9.08113 24.7076 9.86877 24.6298 10.3066 24.096L13.0729 20.7231L9.27484 17.608Z" fill="white" stroke="black" stroke-width="1.5"/>
<rect width="3.41401" height="6.15508" transform="matrix(-0.773209 -0.634152 -0.634152 0.773209 15.7999 16.213)" fill="white"/>
</svg>
