<svg width="45" height="33" viewBox="0 0 45 33" fill="none" xmlns="http://www.w3.org/2000/svg">
<rect x="-0.5" y="0.5" width="13.3182" height="14" rx="1.5" transform="matrix(-1 0 0 1 13.3182 0)" fill="white" stroke="black" stroke-dasharray="2 2"/>
<rect x="-0.5" y="0.5" width="13.3182" height="14" rx="1.5" transform="matrix(-1 0 0 1 22.5227 5)" fill="white" stroke="black"/>
<rect x="35.8635" y="22.2861" width="4.56828" height="10.1169" rx="2.28414" fill="#E5C1A2"/>
<rect x="26.7269" y="22.2861" width="4.56828" height="10.1169" rx="2.28414" fill="#E5C1A2"/>
<rect x="26.7269" y="22.2861" width="4.56828" height="4.62485" fill="black"/>
<rect x="35.8635" y="22.2861" width="4.56828" height="4.62485" fill="black"/>
<rect x="21.8541" y="3.49762" width="23.1459" height="21.968" rx="5" fill="#CBA08D"/>
<rect x="21.8541" y="3.49762" width="21.3186" height="20.2337" rx="5" fill="#E5C1A2"/>
<circle cx="27.6406" cy="12.4583" r="1.1868" fill="black"/>
<circle cx="37.3862" cy="12.4583" r="1.1868" fill="black"/>
<path d="M30.077 16.8941C30.1576 16.9313 30.3441 17.0294 30.5129 17.0916C30.6258 17.1333 30.8095 17.1869 30.9519 17.2249C31.0942 17.2629 31.1936 17.2815 31.3158 17.3003C31.438 17.3192 31.58 17.3378 31.7028 17.3504C31.8256 17.3631 31.925 17.3693 32.1253 17.3714C32.3256 17.3736 32.6238 17.3715 32.9051 17.3581C33.1865 17.3446 33.4421 17.3199 33.6637 17.2906C33.8853 17.2613 34.0651 17.2283 34.2193 17.1927C34.3735 17.1572 34.4965 17.12 34.638 17.0699C34.7795 17.0198 34.9357 16.9579 35.0374 16.9147C35.1392 16.8714 35.1818 16.8487 35.2061 16.8339C35.2304 16.8191 35.2351 16.813 35.2543 16.7941" stroke="black" stroke-width="1.5" stroke-linecap="round"/>
<path d="M18.1728 12.2685C18.2271 11.3801 17.3368 10.7361 16.4839 11.047L9.09887 13.741C8.15441 14.0856 7.96784 15.3175 8.77201 15.8993L15.6848 20.899C16.4892 21.4808 17.6393 20.9458 17.6998 19.9617L18.1728 12.2685Z" fill="white" stroke="black" stroke-width="1.5"/>
<path d="M9.48026 17.5971L6.63888 20.9846C6.19422 21.5147 6.26932 22.2938 6.80665 22.7247L8.76319 24.2937C9.30052 24.7246 10.0966 24.6442 10.5413 24.114L13.3827 20.7266L9.48026 17.5971Z" fill="white" stroke="black" stroke-width="1.5"/>
<rect width="3.4685" height="6.19737" transform="matrix(-0.778357 -0.624188 -0.644138 0.767932 16.1589 16.213)" fill="white"/>
</svg>
