<svg width="131" height="122" viewBox="0 0 131 122" fill="none" xmlns="http://www.w3.org/2000/svg">
<rect x="74" y="80.5" width="15" height="35" rx="7.5" fill="#E5A2C1"/>
<rect x="44" y="80.5" width="15" height="35" rx="7.5" fill="#E5A2C1"/>
<rect x="44" y="80.5" width="15" height="16" fill="black"/>
<rect x="74" y="80.5" width="15" height="16" fill="black"/>
<rect x="36" y="74.5" width="15" height="13" fill="#E5A2C1"/>
<rect width="15" height="13" transform="matrix(-1 0 0 1 93 74.5)" fill="#E5A2C1"/>
<path d="M61.2601 7.28309C63.2185 4.15001 67.7815 4.15001 69.7399 7.28308L117.443 83.5998C119.524 86.93 117.13 91.25 113.203 91.25H17.7971C13.8698 91.25 11.4756 86.93 13.5572 83.5998L61.2601 7.28309Z" fill="#CB8DAB"/>
<path d="M61.077 7.12115C63.0747 3.90491 67.7833 3.98961 69.664 7.27561L108.147 74.5164C110.055 77.8497 107.648 82 103.808 82H23.561C19.6402 82 17.2449 77.6926 19.3136 74.3619L61.077 7.12115Z" fill="#E5A2C1"/>
<circle cx="51.5" cy="47" r="3.5" fill="black"/>
<circle cx="75.5" cy="47" r="3.5" fill="black"/>
<path d="M55 60.8462C55.2647 60.9747 55.8773 61.3141 56.4316 61.5295C56.8022 61.6735 57.4054 61.8591 57.8728 61.9905C58.3402 62.122 58.6665 62.1862 59.0678 62.2515C59.469 62.3167 59.9352 62.381 60.3385 62.4248C60.7419 62.4686 61.0682 62.49 61.7258 62.4975C62.3835 62.5049 63.3625 62.4978 64.2864 62.4513C65.2104 62.4048 66.0495 62.3191 66.7771 62.2178C67.5047 62.1166 68.0952 62.0023 68.6014 61.8792C69.1076 61.7561 69.5117 61.6276 69.9762 61.4543C70.4408 61.281 70.9536 61.0668 71.2877 60.9172C71.6219 60.7676 71.7617 60.6891 71.8415 60.6379C71.9214 60.5868 71.9369 60.5653 72 60.5" stroke="black" stroke-width="3" stroke-linecap="round"/>
<mask id="mask0_48_641" style="mask-type:alpha" maskUnits="userSpaceOnUse" x="100" y="29" width="30" height="30">
<rect x="105.712" y="29" width="24" height="24" transform="rotate(13.7685 105.712 29)" fill="#D9D9D9"/>
</mask>
<g mask="url(#mask0_48_641)">
<path d="M111.595 37.0308L115.177 34.1764C115.435 33.965 115.712 33.8313 116.009 33.7753C116.306 33.7194 116.6 33.7271 116.891 33.7985C117.183 33.8699 117.447 33.999 117.684 34.1859C117.922 34.3727 118.106 34.6195 118.236 34.9261L120.093 39.1133L123.882 41.5089C124.271 41.7415 124.544 42.0616 124.702 42.4691C124.86 42.8767 124.887 43.2909 124.784 43.7117C124.736 43.906 124.66 44.0933 124.556 44.2737C124.452 44.4541 124.313 44.6174 124.14 44.7637L120.541 47.8972L119.662 51.9032C119.539 52.4737 119.236 52.9056 118.752 53.1989C118.269 53.4922 117.768 53.5754 117.25 53.4485C117.217 53.4406 117.045 53.3726 116.733 53.2447L112.685 50.9656L108.041 51.1147C107.952 51.1272 107.858 51.1256 107.759 51.1099C107.66 51.0942 107.57 51.0764 107.489 51.0566C106.971 50.9297 106.565 50.6244 106.272 50.1406C105.978 49.6569 105.909 49.1338 106.064 48.5712L107.143 44.5885L105.419 40.1763C105.333 39.9665 105.285 39.7575 105.276 39.5494C105.267 39.3413 105.286 39.1401 105.334 38.9458C105.433 38.5411 105.643 38.1935 105.963 37.903C106.283 37.6125 106.671 37.4459 107.128 37.4034L111.595 37.0308ZM112.374 38.9978L107.282 39.3975L109.228 44.4818L107.995 49.0957L113.178 48.9502L117.702 51.5L118.747 46.8141L122.811 43.2541L118.493 40.4972L116.415 35.741L112.374 38.9978Z" fill="black"/>
</g>
<mask id="mask1_48_641" style="mask-type:alpha" maskUnits="userSpaceOnUse" x="3" y="16" width="32" height="32">
<rect x="5.89877" y="16" width="28.2804" height="28.2804" transform="rotate(5.8832 5.89877 16)" fill="#D9D9D9"/>
</mask>
<g mask="url(#mask1_48_641)">
<path d="M5.58586 42.0287L13.1375 26.2226L22.5998 37.8589L5.58586 42.0287ZM9.85251 38.5592L18.4181 36.4803L13.6344 30.5975L9.85251 38.5592ZM21.4376 32.4677L20.3337 31.1102L27.5741 25.2225C28.2636 24.6618 29.048 24.4268 29.9271 24.5173C30.8062 24.6079 31.5261 24.998 32.0868 25.6876L32.7176 26.4633L31.3601 27.5672L30.7293 26.7915C30.4839 26.4898 30.1562 26.3178 29.7459 26.2756C29.3357 26.2333 28.9797 26.3348 28.678 26.5801L21.4376 32.4677ZM17.2322 27.296L16.1283 25.9385L16.904 25.3077C17.2057 25.0623 17.3767 24.7443 17.4169 24.3536C17.4572 23.9629 17.3547 23.6167 17.1093 23.315L16.426 22.4746L17.7835 21.3707L18.4669 22.2111C19.0276 22.9006 19.2637 23.6752 19.1751 24.5348C19.0866 25.3944 18.6975 26.1045 18.0079 26.6652L17.2322 27.296ZM19.3349 29.8819L18.231 28.5243L22.8855 24.7394C23.1872 24.4941 23.3592 24.1663 23.4014 23.7561C23.4437 23.3458 23.3422 22.9899 23.0969 22.6882L21.4147 20.6195L22.7723 19.5156L24.4545 21.5842C25.0152 22.2738 25.2502 23.0581 25.1597 23.9372C25.0691 24.8164 24.679 25.5363 23.9894 26.097L19.3349 29.8819ZM23.5404 35.0536L22.4364 33.696L24.5051 32.0138C25.1947 31.4531 25.979 31.218 26.8581 31.3086C27.7372 31.3992 28.4571 31.7893 29.0179 32.4788L30.7 34.5475L29.3425 35.6515L27.6603 33.5828C27.415 33.2811 27.0872 33.1091 26.6769 33.0668C26.2667 33.0246 25.9107 33.1261 25.609 33.3714L23.5404 35.0536Z" fill="black"/>
</g>
</svg>
